<?xml version="1.0" standalone="no"?>
<!DOCTYPE svg PUBLIC "-//W3C//DTD SVG 20010904//EN"
 "http://www.w3.org/TR/2001/REC-SVG-20010904/DTD/svg10.dtd">
<svg version="1.0" xmlns="http://www.w3.org/2000/svg"
 width="180.000000pt" height="180.000000pt" viewBox="0 0 180.000000 180.000000"
 preserveAspectRatio="xMidYMid meet">

<g transform="translate(0.000000,180.000000) scale(0.100000,-0.100000)"
fill="#000000" stroke="none">
<path d="M0 900 l0 -900 900 0 900 0 0 900 0 900 -900 0 -900 0 0 -900z m1035
665 c172 -37 287 -144 331 -310 9 -32 14 -108 14 -210 0 -87 5 -207 12 -266
10 -91 9 -118 -5 -189 -18 -92 -40 -130 -103 -178 -233 -174 -538 -175 -769
-2 -75 56 -108 123 -113 230 -2 48 2 105 8 130 7 25 16 146 19 270 7 199 10
232 30 282 73 188 328 295 576 243z m-633 -454 c4 -3 11 -58 14 -121 5 -93 3
-128 -11 -180 -25 -94 -24 -222 3 -283 12 -26 31 -61 43 -78 27 -39 19 -71
-30 -121 -27 -26 -47 -38 -68 -38 -97 0 -114 120 -38 270 31 61 31 75 0 225
-37 181 -33 274 13 328 16 18 56 17 74 -2z m1089 -13 c18 -29 20 -43 15 -129
-3 -53 -13 -134 -22 -180 -30 -161 -30 -159 9 -245 46 -102 54 -157 30 -204
-36 -69 -117 -60 -170 19 -28 42 -29 72 -3 96 54 48 63 153 45 489 -8 149 -7
160 10 172 32 24 63 17 86 -18z"/>
<path d="M600 1241 c-26 -7 -90 -83 -90 -106 0 -9 18 -1 51 21 76 51 132 46
204 -17 l37 -33 -16 39 c-22 52 -34 65 -81 86 -42 19 -64 22 -105 10z"/>
<path d="M1094 1231 c-37 -17 -84 -72 -84 -99 0 -6 23 5 51 24 77 51 138 43
218 -30 l23 -21 -16 40 c-37 90 -112 124 -192 86z"/>
<path d="M585 1071 c-28 -16 -58 -37 -65 -47 -14 -16 -13 -17 20 -10 19 3 54
16 78 27 49 24 82 20 118 -16 18 -18 24 -20 24 -9 0 41 -53 84 -102 84 -13 0
-46 -13 -73 -29z"/>
<path d="M1071 1086 c-25 -14 -50 -51 -51 -75 0 -8 10 -4 24 12 35 38 68 43
120 18 24 -12 62 -24 83 -27 l38 -5 -29 23 c-79 63 -138 80 -185 54z"/>
<path d="M857 953 c-4 -3 -7 -14 -7 -24 0 -10 -22 -42 -50 -72 -70 -76 -67
-129 7 -134 21 -1 57 -5 81 -9 30 -4 49 -2 65 9 16 10 28 12 40 6 11 -6 24 -6
37 1 24 13 27 66 6 96 -19 26 -30 13 -15 -19 17 -37 5 -61 -26 -53 -16 4 -34
1 -48 -9 -26 -18 -60 -19 -90 -3 -12 7 -35 12 -52 12 -47 1 -43 29 14 92 37
40 51 64 51 85 0 30 -2 34 -13 22z"/>
<path d="M618 675 c-21 -27 -22 -35 -8 -35 10 0 34 49 28 55 -2 2 -11 -7 -20
-20z"/>
<path d="M1150 689 c0 -17 -125 -80 -198 -99 -56 -14 -118 -2 -217 44 -95 44
-106 37 -67 -46 68 -142 178 -203 303 -168 67 19 155 116 174 193 5 17 14 27
26 27 24 0 24 8 -1 40 -14 18 -20 21 -20 9z m-390 -91 c100 -43 177 -44 270
-4 101 43 102 43 90 11 -18 -47 -70 -115 -108 -140 -78 -51 -174 -41 -246 25
-41 38 -106 140 -89 140 5 0 42 -14 83 -32z"/>
</g>
</svg>
