<svg width="451.36407470703125px" height="122px" xmlns="http://www.w3.org/2000/svg" viewBox="24.317962646484375 14 451.36407470703125 122" style="background: rgba(255, 0, 0, 0);" preserveAspectRatio="xMidYMid"><defs><linearGradient id="editing-gradient-gradient" x1="0" x2="1" y1="0.5" y2="0.5" gradientUnits="objectBoundingBox"><stop offset="0" stop-color="#f0f"></stop><stop offset="1" stop-color="#0ff"></stop></linearGradient></defs><g><g transform="translate(186.32056665420532, 96.76000022888184)"><path d="M2.69-39.68L2.69-39.68L2.69-39.68Q4.54-43.52 9.70-43.52L9.70-43.52L9.70-43.52Q14.85-43.52 17.25-40.54L17.25-40.54L17.25-40.54Q19.65-37.57 19.65-30.72L19.65-30.72L19.65-7.87L35.20-42.18L42.82-42.18L22.91 0L7.94 0L6.02-30.72L6.02-30.72Q5.82-34.11 4.90-36.42L4.90-36.42L4.90-36.42Q3.97-38.72 2.69-39.68ZM65.28-42.69L65.28-42.69L65.28-42.69Q80.96-42.69 80.96-31.62L80.96-31.62L80.96-31.62Q80.96-25.54 77.06-21.89L77.06-21.89L77.06-21.89Q73.22-18.24 66.50-18.24L66.50-18.24L66.50-18.24Q63.36-18.24 60.93-20.03L60.93-20.03L60.93-20.03Q59.78-20.80 59.01-21.82L59.01-21.82L59.01-21.82Q63.68-21.82 66.14-24.67L66.14-24.67L66.14-24.67Q68.61-27.52 68.61-33.09L68.61-33.09L68.61-33.09Q68.61-38.66 63.10-38.66L63.10-38.66L61.57-38.66L61.57-38.66Q61.18-38.66 60.86-38.59L60.86-38.59L53.50 0L39.62 0L47.49-41.92L47.49-41.92Q54.34-42.56 58.30-42.62L58.30-42.62L58.30-42.62Q62.27-42.69 65.28-42.69ZM87.87 0L80.83 0L88.51-42.24L102.27-42.24L112.26-13.18L117.57-42.24L124.67-42.18L116.86 0L102.21 0L92.99-27.97L87.87 0Z" fill="url(#editing-gradient-gradient)"></path></g></g><style>text {
  font-size: 64px;
  font-family: Arial Black;
  dominant-baseline: central;
  text-anchor: middle;
}</style></svg>
